<?xml version="1.0" encoding="UTF-8" standalone="no"?>
<!-- Created with Inkscape (http://www.inkscape.org/) -->

<svg
   width="80.212997mm"
   height="66.271309mm"
   viewBox="0 0 80.212997 66.271309"
   version="1.1"
   id="svg1"
   inkscape:version="1.4 (86a8ad7, 2024-10-11)"
   sodipodi:docname="Favicon Malerbetrieb.svg"
   xmlns:inkscape="http://www.inkscape.org/namespaces/inkscape"
   xmlns:sodipodi="http://sodipodi.sourceforge.net/DTD/sodipodi-0.dtd"
   xmlns="http://www.w3.org/2000/svg"
   xmlns:svg="http://www.w3.org/2000/svg">
  <sodipodi:namedview
     id="namedview1"
     pagecolor="#ffffff"
     bordercolor="#000000"
     borderopacity="0.25"
     inkscape:showpageshadow="2"
     inkscape:pageopacity="0.0"
     inkscape:pagecheckerboard="0"
     inkscape:deskcolor="#d1d1d1"
     inkscape:document-units="mm"
     inkscape:zoom="0.76284302"
     inkscape:cx="-574.82338"
     inkscape:cy="7.2098713"
     inkscape:window-width="1445"
     inkscape:window-height="1121"
     inkscape:window-x="1816"
     inkscape:window-y="144"
     inkscape:window-maximized="0"
     inkscape:current-layer="layer1" />
  <defs
     id="defs1">
    <clipPath
       clipPathUnits="userSpaceOnUse"
       id="clipPath5">
      <path
         style="fill:#000000;fill-opacity:1;fill-rule:evenodd;stroke:#000000;stroke-width:0.352999;stroke-opacity:0"
         d="m 7.3300627,61.731493 1.1480821,-3.444248 2.8260482,-2.649418 3.709188,-1.148083 4.327387,0.794827 1.236396,1.236395 17.574488,33.117753 1.589651,1.413021 2.207853,0.794827 1.942907,0.618201 h 2.20785 l 2.914361,-1.32471 1.766282,-0.971455 0.618199,-0.264943 3.709186,6.270297 -30.380019,17.574483 -3.53256,-6.44692 3.797502,-2.03122 1.589652,-1.58966 0.971454,-2.03122 0.618199,-2.384474 v -2.38448 L 27.377342,94.937559 7.6833188,63.762715 Z"
         id="path6" />
    </clipPath>
    <clipPath
       clipPathUnits="userSpaceOnUse"
       id="clipPath7">
      <path
         style="fill:#000000;fill-opacity:1;fill-rule:evenodd;stroke:#000000;stroke-width:0.352999;stroke-opacity:0"
         d="m 25.34612,114.01338 29.408565,-17.044599 12.275648,20.223909 0.441571,0.17663 21.813557,0.52988 0.08831,4.23907 -59.435325,-0.17662 z"
         id="path8" />
    </clipPath>
    <clipPath
       clipPathUnits="userSpaceOnUse"
       id="clipPath3">
      <path
         style="fill:#ffffff;fill-opacity:1;fill-rule:evenodd;stroke-width:0.352999"
         d="m 133.41701,216.80265 29.92072,-17.65815 12.87572,20.11066 22.31792,1.10364 v 5.02766 l -60.0867,0.12263 z"
         id="path4" />
    </clipPath>
  </defs>
  <g
     inkscape:label="Ebene 1"
     inkscape:groupmode="layer"
     id="layer1"
     transform="translate(-108.54544,-121.0157)">
    <g
       id="g1"
       transform="translate(-8.3385633,-36.910405)">
      <path
         style="display:inline;fill:#889cab;fill-opacity:1"
         d="m 136.80189,220.44862 c -1.18973,-2.06183 -2.07012,-3.83916 -1.95642,-3.94962 0.11371,-0.11046 0.92112,-0.60648 1.79424,-1.10227 3.58293,-2.03449 25.66632,-14.82286 26.19643,-15.1702 0.5576,-0.36535 0.68308,-0.19279 4.68256,6.43992 2.26029,3.74843 5.02353,8.32296 6.14055,10.16562 l 2.03093,3.35029 1.24456,0.14803 c 0.6845,0.0814 5.50104,0.22633 10.70341,0.32204 l 9.45885,0.17402 v 1.68548 1.68548 h -29.06598 -29.06598 z m 14.4538,-0.21996 c 2.25727,-1.18925 3.32976,-1.30612 6.02152,-0.65617 2.16381,0.52247 3.47999,0.49878 3.96875,-0.0714 0.21828,-0.25466 0.635,-0.73091 0.92604,-1.05833 0.29104,-0.32742 0.52655,-0.8632 0.52336,-1.19063 -0.009,-0.92174 -0.87578,-2.59174 -2.02556,-3.9026 -2.09973,-2.39387 -2.43652,-3.46961 -1.40821,-4.49792 1.38019,-1.38019 2.92193,-0.24012 3.70476,2.73957 0.67807,2.58097 1.32528,3.87242 2.38935,4.76778 1.07883,0.90777 1.54489,0.87655 2.77389,-0.18584 l 1.01868,-0.88057 -3.27061,-5.73401 c -1.79883,-3.15371 -3.38173,-5.73401 -3.51754,-5.73401 -0.34154,0 -8.12562,4.54619 -8.12562,4.74566 0,0.0887 0.36939,1.11099 0.82086,2.27183 1.1247,2.89185 1.55198,4.09501 1.45429,4.09501 -0.0454,0 -0.94361,-1.13055 -1.99593,-2.51232 -1.05232,-1.38178 -2.01688,-2.57634 -2.14348,-2.65458 -0.1266,-0.0782 -1.55581,0.60461 -3.17603,1.51745 -3.26468,1.83933 -3.01882,1.43642 -2.46898,4.04633 0.16578,0.78687 0.15874,0.78401 -0.81257,-0.33073 -1.79486,-2.05989 -1.85579,-1.5096 -0.28146,2.54182 0.52911,1.36162 0.90923,2.52846 0.84472,2.59298 -0.0645,0.0645 -0.9673,-0.96024 -2.00617,-2.27724 -1.03888,-1.317 -2.02357,-2.39454 -2.18819,-2.39454 -0.35436,0 -3.5777,1.77354 -3.76029,2.06898 -0.0693,0.1122 0.19252,0.69961 0.58193,1.30535 0.61334,0.95405 0.79672,1.07629 1.37123,0.91402 1.4484,-0.40909 3.31491,-0.16107 5.04461,0.6703 2.34313,1.12622 3.28804,1.09391 5.73665,-0.19615 z m -16.73265,-12.7 c 0.26339,-0.29104 0.53842,-0.52917 0.61119,-0.52917 0.0728,0 -0.0832,0.23813 -0.3466,0.52917 -0.26339,0.29104 -0.53842,0.52916 -0.61118,0.52916 -0.0728,0 0.0832,-0.23812 0.34659,-0.52916 z m 18.19011,-11.82405 c 0.25466,-0.0666 0.67138,-0.0666 0.92604,0 0.25466,0.0666 0.0463,0.121 -0.46302,0.121 -0.50932,0 -0.71768,-0.0545 -0.46302,-0.121 z m -36.02859,-31.45738 c 0.0127,-0.30822 0.0754,-0.37091 0.15985,-0.15985 0.0764,0.191 0.067,0.4192 -0.0209,0.50712 -0.0879,0.0879 -0.15045,-0.0684 -0.13896,-0.34727 z m 9.73494,-1.36701 c -0.3291,-0.41964 -0.31975,-0.429 0.0999,-0.0999 0.25466,0.19972 0.46302,0.40807 0.46302,0.46302 0,0.21776 -0.21727,0.0776 -0.56292,-0.36313 z m -8.16833,-2.28271 c 0,-0.0549 0.20836,-0.2633 0.46302,-0.46302 0.41964,-0.3291 0.429,-0.31975 0.0999,0.0999 -0.34565,0.44073 -0.56292,0.58088 -0.56292,0.36312 z m 10.02042,-1.42146 c -0.32911,-0.41964 -0.31975,-0.429 0.0999,-0.0999 0.44073,0.34564 0.58089,0.56291 0.36313,0.56291 -0.0549,0 -0.2633,-0.20835 -0.46302,-0.46302 z m -5.30753,-1.30522 c 0.191,-0.0764 0.4192,-0.067 0.50712,0.0209 0.0879,0.0879 -0.0684,0.15046 -0.34727,0.13897 -0.30822,-0.0127 -0.37092,-0.0754 -0.15985,-0.15986 z"
         id="path2"
         clip-path="url(#clipPath3)" />
      <path
         style="display:inline;fill:#030303"
         d="m 132.38084,212.67949 c -0.82691,-1.38567 -1.45709,-2.55827 -1.40042,-2.60577 0.0567,-0.0475 0.69592,-0.42878 1.42055,-0.84729 3.07873,-1.77808 4.65666,-4.27819 4.84405,-7.67501 0.0971,-1.76032 0.0213,-2.35951 -0.42631,-3.37151 l -0.54441,-1.23072 1.24104,-0.70692 c 0.68257,-0.38881 2.75981,-1.59237 4.61609,-2.67459 l 3.37505,-1.96766 1.19485,1.32896 c 2.81832,3.13465 7.33612,3.72668 11.42211,1.4968 l 1.63999,-0.89501 1.3364,2.30259 c 0.73502,1.26642 1.33572,2.42165 1.3349,2.56717 -8.2e-4,0.14552 -0.32816,0.45293 -0.72742,0.68312 -18.095,10.43271 -26.77323,15.44885 -27.23906,15.74455 -0.56351,0.35771 -0.63659,0.28248 -2.08741,-2.14871 z m 0.0291,-21.88573 c -1.84754,-2.9468 -5.61723,-8.92969 -8.37709,-13.29531 -7.27547,-11.50855 -7.1487,-11.2837 -7.1487,-12.68056 0,-2.18743 1.80734,-5.10117 3.80491,-6.13415 2.19026,-1.13263 5.79877,-0.97221 7.34207,0.32639 0.45984,0.38693 1.72018,2.46517 3.07706,5.07392 1.26402,2.43021 2.74434,5.252 3.28961,6.27065 0.54527,1.01865 2.15353,4.05474 3.57391,6.74687 1.42038,2.69214 3.58262,6.78694 4.80496,9.09955 1.22235,2.31262 2.24658,4.31606 2.27608,4.45208 0.0476,0.21942 -8.68611,5.48543 -9.11293,5.49468 -0.0939,0.002 -1.68234,-2.40732 -3.52988,-5.35412 z m -6.4964,-22.59159 c 0.97979,-0.57878 1.59804,-1.68617 1.59804,-2.86237 0,-2.02465 -1.33807,-3.31948 -3.43033,-3.31948 -0.85552,0 -1.2774,0.18516 -2.06366,0.90572 -0.91162,0.83543 -0.98831,1.01855 -0.98831,2.35993 0,1.18499 0.12246,1.58599 0.66146,2.16593 1.15203,1.23954 2.876,1.54584 4.2228,0.75027 z"
         id="path1" />
    </g>
  </g>
</svg>
